<svg xmlns="http://www.w3.org/2000/svg" xmlns:xlink="http://www.w3.org/1999/xlink" width="400" zoomAndPan="magnify" viewBox="0 0 300 299.999988" height="400" preserveAspectRatio="xMidYMid meet" version="1.0"><defs><g/><clipPath id="8a997b902a"><path d="M 75 0 L 225 0 C 244.890625 0 263.96875 7.902344 278.03125 21.96875 C 292.097656 36.03125 300 55.109375 300 75 L 300 225 C 300 244.890625 292.097656 263.96875 278.03125 278.03125 C 263.96875 292.097656 244.890625 300 225 300 L 75 300 C 55.109375 300 36.03125 292.097656 21.96875 278.03125 C 7.902344 263.96875 0 244.890625 0 225 L 0 75 C 0 55.109375 7.902344 36.03125 21.96875 21.96875 C 36.03125 7.902344 55.109375 0 75 0 Z M 75 0 " clip-rule="nonzero"/></clipPath><clipPath id="4cafd58ee9"><path d="M 0 0 L 300 0 L 300 300 L 0 300 Z M 0 0 " clip-rule="nonzero"/></clipPath><clipPath id="00551a9c89"><path d="M 75 0 L 225 0 C 244.890625 0 263.96875 7.902344 278.03125 21.96875 C 292.097656 36.03125 300 55.109375 300 75 L 300 225 C 300 244.890625 292.097656 263.96875 278.03125 278.03125 C 263.96875 292.097656 244.890625 300 225 300 L 75 300 C 55.109375 300 36.03125 292.097656 21.96875 278.03125 C 7.902344 263.96875 0 244.890625 0 225 L 0 75 C 0 55.109375 7.902344 36.03125 21.96875 21.96875 C 36.03125 7.902344 55.109375 0 75 0 Z M 75 0 " clip-rule="nonzero"/></clipPath><clipPath id="34a7422b31"><rect x="0" width="300" y="0" height="300"/></clipPath><clipPath id="e1da4ddfea"><rect x="0" width="182" y="0" height="102"/></clipPath><clipPath id="841ebfcbfb"><path d="M 67 132 L 233 132 L 233 297.121094 L 67 297.121094 Z M 67 132 " clip-rule="nonzero"/></clipPath><clipPath id="37538b6724"><path d="M 150.628906 132.136719 L 232.4375 213.941406 L 149.261719 297.117188 L 67.453125 215.3125 Z M 150.628906 132.136719 " clip-rule="nonzero"/></clipPath><clipPath id="02029f3d63"><path d="M 0.441406 0 L 165.558594 0 L 165.558594 52 L 0.441406 52 Z M 0.441406 0 " clip-rule="nonzero"/></clipPath><clipPath id="70ab49c4bc"><path d="M 83.628906 0.136719 L 165.4375 81.941406 L 82.261719 165.117188 L 0.453125 83.3125 Z M 83.628906 0.136719 " clip-rule="nonzero"/></clipPath><clipPath id="2edade9011"><path d="M 305.933594 -58.511719 L 129.527344 -234.921875 L -93.953125 -11.441406 L 82.453125 164.964844 Z M 305.933594 -58.511719 " clip-rule="nonzero"/></clipPath><clipPath id="87326cb95c"><path d="M 28 10 L 137 10 L 137 114 L 28 114 Z M 28 10 " clip-rule="nonzero"/></clipPath><clipPath id="db7af01b27"><path d="M 83.628906 0.136719 L 165.4375 81.941406 L 82.261719 165.117188 L 0.453125 83.3125 Z M 83.628906 0.136719 " clip-rule="nonzero"/></clipPath><clipPath id="a0f060aa79"><path d="M 305.933594 -58.511719 L 129.527344 -234.921875 L -93.953125 -11.441406 L 82.453125 164.964844 Z M 305.933594 -58.511719 " clip-rule="nonzero"/></clipPath><clipPath id="99d2e04b14"><rect x="0" width="166" y="0" height="166"/></clipPath><clipPath id="17e0cef26a"><rect x="0" width="300" y="0" height="298"/></clipPath></defs><g clip-path="url(#8a997b902a)"><g transform="matrix(1, 0, 0, 1, 0, 0)"><g clip-path="url(#34a7422b31)"><g clip-path="url(#4cafd58ee9)"><g clip-path="url(#00551a9c89)"><rect x="-66" width="432" fill="#155dfc" height="431.999983" y="-65.999997" fill-opacity="1"/></g></g></g></g></g><g transform="matrix(1, 0, 0, 1, 0, 0)"><g clip-path="url(#17e0cef26a)"><g transform="matrix(1, 0, 0, 1, 59, 57)"><g clip-path="url(#e1da4ddfea)"><g fill="#ffffff" fill-opacity="1"><g transform="translate(40.949532, 0.982861)"><g><path d="M 31.078125 77.703125 C 33.472656 80.191406 34.671875 83.03125 34.671875 86.21875 C 34.671875 89.3125 33.570312 91.953125 31.375 94.140625 C 29.1875 96.335938 26.550781 97.4375 23.46875 97.4375 C 20.269531 97.4375 16.878906 95.640625 13.296875 92.046875 C 8.710938 87.460938 5.097656 81.957031 2.453125 75.53125 C -0.179688 69.113281 -1.5 62.613281 -1.5 56.03125 C -1.5 48.957031 -0.128906 42.304688 2.609375 36.078125 C 5.347656 29.859375 9.035156 24.40625 13.671875 19.71875 C 18.304688 15.039062 23.734375 11.332031 29.953125 8.59375 C 36.179688 5.851562 42.832031 4.484375 49.90625 4.484375 C 56.976562 4.484375 63.628906 5.828125 69.859375 8.515625 C 76.085938 11.203125 81.515625 14.882812 86.140625 19.5625 C 90.773438 24.25 94.4375 29.707031 97.125 35.9375 C 99.820312 42.164062 101.171875 48.816406 101.171875 55.890625 C 101.171875 67.847656 97.1875 78.707031 89.21875 88.46875 C 86.820312 91.351562 84.675781 93.414062 82.78125 94.65625 C 80.894531 95.90625 78.804688 96.53125 76.515625 96.53125 C 73.421875 96.53125 70.800781 95.457031 68.65625 93.3125 C 66.519531 91.175781 65.453125 88.515625 65.453125 85.328125 C 65.453125 82.441406 66.648438 79.648438 69.046875 76.953125 L 71.28125 74.5625 C 73.570312 72.070312 75.335938 69.179688 76.578125 65.890625 C 77.828125 62.609375 78.453125 59.222656 78.453125 55.734375 C 78.453125 51.847656 77.703125 48.160156 76.203125 44.671875 C 74.710938 41.191406 72.644531 38.179688 70 35.640625 C 67.363281 33.097656 64.300781 31.078125 60.8125 29.578125 C 57.332031 28.085938 53.648438 27.34375 49.765625 27.34375 C 45.878906 27.34375 42.191406 28.085938 38.703125 29.578125 C 35.210938 31.078125 32.171875 33.144531 29.578125 35.78125 C 26.992188 38.425781 24.953125 41.492188 23.453125 44.984375 C 21.960938 48.472656 21.21875 52.15625 21.21875 56.03125 C 21.21875 59.226562 21.789062 62.46875 22.9375 65.75 C 24.082031 69.039062 25.550781 71.679688 27.34375 73.671875 Z M 31.078125 77.703125 "/></g></g></g></g></g><g clip-path="url(#841ebfcbfb)"><g clip-path="url(#37538b6724)"><g transform="matrix(1, 0, 0, 1, 67, 132)"><g clip-path="url(#99d2e04b14)"><g clip-path="url(#02029f3d63)"><g clip-path="url(#70ab49c4bc)"><g clip-path="url(#2edade9011)"><path fill="#ffffff" d="M -61.511719 -41.785156 L 64.753906 -144.511719 C 74.8125 -152.6875 89.367188 -151.914062 98.527344 -142.753906 L 205.101562 -36.179688 C 214.261719 -27.019531 214.988281 -12.425781 206.855469 -2.410156 L 181.304688 29.050781 C 164.140625 50.152344 131.011719 46.898438 118.257812 22.929688 L 111.324219 9.917969 C 103.449219 -4.890625 85.042969 -11.824219 68.007812 -3.691406 C 62.101562 -0.867188 57.523438 4.140625 54.441406 9.960938 L 44.46875 28.75 C 30.683594 54.6875 -4.242188 59.910156 -25 39.152344 L -63.691406 0.460938 C -75.59375 -11.527344 -74.609375 -31.171875 -61.511719 -41.785156 Z M -61.511719 -41.785156 " fill-opacity="1" fill-rule="nonzero"/></g></g></g><g clip-path="url(#87326cb95c)"><g clip-path="url(#db7af01b27)"><g clip-path="url(#a0f060aa79)"><path fill="#ffffff" d="M 95.316406 18.394531 L 135.378906 93.636719 C 141.199219 104.597656 130.15625 116.835938 118.640625 112.171875 L 99.125 104.210938 C 88.765625 100.015625 77.167969 99.972656 66.765625 104.210938 L 47.25 112.171875 C 35.734375 116.835938 24.691406 104.597656 30.515625 93.636719 L 70.578125 18.394531 C 75.796875 8.464844 90.007812 8.464844 95.316406 18.394531 Z M 95.316406 18.394531 " fill-opacity="1" fill-rule="nonzero"/></g></g></g></g></g></g></g></g></g></svg>